<?xml version="1.0" encoding="UTF-8" standalone="no"?>
<!DOCTYPE svg PUBLIC "-//W3C//DTD SVG 1.1//EN" "http://www.w3.org/Graphics/SVG/1.1/DTD/svg11.dtd">
<svg width="800.00" height="600.00" viewBox="0.00 0.00 800.00 600.00" xmlns="http://www.w3.org/2000/svg" xmlns:xlink="http://www.w3.org/1999/xlink">
<g stroke-linecap="round" transform="translate(-3.00, -10.00)" id="Anger_Expression">
<path d="M435.84,91.11 C435.84,91.11 443.16,99.54 443.16,99.54 C443.16,99.54 444.04,100.20 444.04,100.20 C444.04,100.20 445.82,101.09 445.82,101.09 C445.82,101.09 448.92,102.86 448.92,102.86 C448.92,102.86 452.47,103.75 452.47,103.75 C452.47,103.75 467.77,103.75 467.77,103.75" fill="none" stroke="rgb(243, 95, 95)" stroke-width="12.00" stroke-opacity="1.00" stroke-linejoin="round"/>
<path d="M427.42,109.51 C427.42,109.51 427.86,110.62 427.86,110.62 C427.86,110.62 429.41,113.73 429.41,113.73 C429.41,113.73 431.85,116.83 431.85,116.83 C431.85,116.83 432.30,118.60 432.30,118.60 C432.30,118.60 432.74,120.38 432.74,120.38 C433.13,122.21 433.66,124.04 433.63,125.70 C433.54,130.07 433.67,134.39 432.96,135.45 C431.46,137.51 431.36,137.85 431.41,138.11 C431.41,138.11 430.30,138.78 430.30,138.78 C430.30,138.78 429.19,139.22 429.19,139.22" fill="none" stroke="rgb(243, 95, 95)" stroke-width="12.00" stroke-opacity="1.00" stroke-linejoin="round"/>
<path d="M456.68,142.32 C456.70,141.29 456.63,139.19 456.68,139.00 C456.78,138.64 457.52,137.84 457.57,137.23 C457.59,136.94 457.62,134.98 458.23,134.12 C458.38,133.92 460.97,130.04 461.78,128.36 C463.29,127.67 465.89,125.86 466.66,125.48 C467.10,125.48 468.99,124.65 469.32,124.59 C470.05,124.45 471.44,124.64 471.53,124.59 C473.48,123.65 474.54,123.73 479.07,123.70 C479.88,123.70 480.70,123.70 481.51,123.70" fill="none" stroke="rgb(243, 95, 95)" stroke-width="12.00" stroke-opacity="1.00" stroke-linejoin="round"/>
</g>
</svg>
