<?xml version="1.0" encoding="UTF-8" standalone="no"?>
<!DOCTYPE svg PUBLIC "-//W3C//DTD SVG 1.1//EN" "http://www.w3.org/Graphics/SVG/1.1/DTD/svg11.dtd">
<svg width="800.00" height="600.00" viewBox="0.00 0.00 800.00 600.00" xmlns="http://www.w3.org/2000/svg" xmlns:xlink="http://www.w3.org/1999/xlink">
<g stroke-linecap="round" id="Body_Fill">
<path d="M291.74,284.65 C291.74,284.65 280.22,316.79 280.22,316.79 C278.93,318.11 276.38,321.68 275.78,322.56 C274.54,324.45 273.77,326.38 273.12,326.99 C273.12,326.99 270.46,336.75 270.46,336.75 C270.46,336.75 269.57,340.74 269.57,340.74 C269.31,333.85 272.68,322.76 273.79,320.56 C275.72,316.82 277.69,309.78 278.22,308.81 C278.87,307.64 281.76,301.08 282.21,299.72 C282.45,299.20 283.81,297.49 283.98,297.06 C285.20,293.52 287.36,287.75 287.31,287.09 C287.31,287.09 287.98,285.31 287.98,285.31 C286.68,288.11 283.54,295.40 281.10,299.06 C279.85,300.95 278.44,302.80 277.11,306.15 C276.23,308.81 274.06,314.63 272.01,320.79 C271.45,322.45 268.24,337.67 268.24,354.04 C268.24,354.04 267.36,367.78 267.36,367.78 C267.36,367.78 266.47,372.22 266.47,372.22 C266.47,372.22 265.14,376.21 265.14,376.21 C265.21,376.86 264.51,378.85 263.81,380.64 C263.73,380.86 263.41,384.19 263.37,384.41 C263.28,384.85 262.26,388.62 262.04,389.51 C261.73,391.75 261.59,394.61 260.71,400.82 C260.71,406.67 261.22,415.03 262.04,418.11 C263.48,423.65 265.55,434.26 267.13,438.63 C269.06,443.98 271.30,448.53 272.24,451.58 C273.19,454.69 279.73,465.89 279.77,465.99 C282.28,472.09 285.22,476.79 287.53,481.07 C288.43,482.70 295.22,492.50 297.29,494.15 C300.70,496.85 303.01,499.85 303.94,500.80 C305.64,502.55 307.78,505.20 310.81,507.89 C316.53,512.92 328.25,522.36 340.07,526.96 C340.73,527.20 349.57,532.02 350.71,532.28 C354.81,533.20 362.10,535.89 373.10,538.48 C374.07,538.70 393.61,538.26 394.83,538.48 C398.73,539.22 402.94,539.12 407.24,539.59 C407.71,539.64 415.23,540.04 415.23,540.04 C418.69,541.23 421.77,540.38 422.32,539.81 C422.70,539.78 426.25,540.25 426.75,540.04 C427.37,539.77 433.93,538.54 435.62,538.71 C435.71,538.72 437.63,538.20 438.28,538.26 C448.75,535.08 451.34,535.28 454.24,533.83 C454.97,533.58 460.23,532.83 461.34,532.50 C468.91,530.23 475.27,527.83 478.63,525.63 C479.00,525.26 486.14,519.71 487.05,520.08 C487.05,520.08 491.49,517.65 491.49,517.65 C491.89,517.15 497.80,513.32 498.58,512.99 C499.59,512.40 505.56,503.41 506.56,502.57 C506.58,502.55 509.66,499.92 509.67,499.91 C511.67,496.97 513.77,493.26 514.10,492.82 C516.64,488.54 518.50,481.22 526.52,453.02 C526.74,452.24 526.96,451.47 527.18,450.70" fill="none" stroke="rgb(163, 128, 93)" stroke-width="100.00" stroke-opacity="1.00" stroke-linejoin="round"/>
<path d="M325.00,104.19 C323.36,106.69 319.11,109.83 316.35,114.61 C308.79,127.89 305.49,142.44 304.60,146.76 C303.81,149.54 301.37,155.72 301.50,155.85 C301.50,155.85 300.39,157.84 300.39,157.84 C300.39,157.84 299.28,158.95 299.28,158.95 C299.45,159.16 295.50,166.74 295.07,167.82 C293.31,172.18 291.25,179.43 290.86,183.34 C290.86,184.67 289.50,197.88 289.51,202.53 C289.54,215.72 289.43,221.04 290.41,227.45 C290.94,233.68 292.38,241.98 293.30,245.19 C294.66,249.55 299.46,260.35 299.95,260.93 C298.84,259.04 295.76,254.35 295.73,254.28 C294.80,251.90 292.06,246.90 291.97,246.74 C291.80,246.47 290.94,246.00 290.86,245.85 C290.86,245.85 289.53,242.31 289.53,242.31 C289.53,242.31 286.87,234.33 286.87,234.33 C286.87,234.33 285.09,229.45 285.09,229.45 C285.09,229.45 284.65,228.12 284.65,228.12 C283.60,227.16 281.95,216.58 281.99,215.48 C281.99,213.49 281.55,201.29 281.10,200.19 C280.68,199.12 281.51,192.28 281.99,190.43 C284.21,182.45 287.24,172.25 287.98,171.14 C287.98,171.14 289.97,166.93 289.97,166.93 C291.73,165.78 292.34,160.74 293.07,159.40 C293.46,158.68 293.57,158.34 293.52,158.06 C293.52,158.06 303.72,139.89 303.72,139.89 C303.67,139.74 309.86,126.19 316.35,119.05 C320.79,114.17 328.59,105.27 329.87,103.97 C329.30,102.76 324.72,104.17 323.00,105.75 C321.21,108.05 313.31,114.42 312.80,114.61 C312.44,115.68 309.15,118.87 309.04,119.05 C308.85,119.32 306.73,122.80 306.15,122.82 C305.86,122.84 304.57,125.85 303.94,127.03 C303.94,127.03 299.72,132.35 299.72,132.35 C299.72,132.35 298.84,133.68 298.84,133.68 C298.84,133.68 297.95,135.01 297.95,135.01 C297.95,135.01 297.51,136.34 297.51,136.34 C297.51,136.34 293.96,143.88 293.96,143.88 C293.96,143.88 291.30,150.53 291.30,150.53 C291.30,150.53 290.86,152.74 290.86,152.74 C290.86,152.74 290.41,154.07 290.41,154.07 C289.17,158.16 288.69,161.06 288.64,161.17 C287.95,162.66 286.60,177.46 285.76,179.35 C285.61,179.68 283.74,193.07 283.77,206.45 C283.78,218.33 285.09,233.15 289.31,242.75 C289.35,242.85 291.47,251.12 291.74,251.62 C293.34,254.37 294.07,256.35 294.63,257.38 C294.63,257.38 291.33,252.70 291.08,252.06 C290.04,249.41 289.85,248.04 288.86,246.08 C288.76,245.87 288.54,245.30 287.98,244.97 C287.98,244.97 283.32,231.67 283.32,231.67 C281.40,227.75 277.47,215.48 277.11,213.93 C276.84,212.69 276.72,208.73 276.67,208.61 C276.12,207.20 277.16,196.90 277.11,196.42 C276.84,193.76 283.28,176.37 284.65,173.58 C284.89,173.15 290.44,159.39 295.07,152.08 C305.70,134.35 309.26,129.78 310.81,128.14" fill="none" stroke="rgb(163, 128, 93)" stroke-width="100.00" stroke-opacity="1.00" stroke-linejoin="round"/>
<path d="M278.44,289.53 C276.23,291.15 275.50,292.13 275.14,294.28 C275.10,294.53 270.25,317.92 268.71,325.80 C267.80,330.25 267.14,338.52 266.47,342.51 C264.15,351.55 264.26,356.16 264.25,372.37 C264.25,374.93 263.84,383.75 262.48,389.73 C261.70,393.22 261.19,394.71 261.17,399.39 C261.18,402.54 263.09,412.50 263.59,413.45 C262.34,412.35 261.12,409.78 260.49,407.91 C259.64,405.34 258.33,398.43 258.49,397.05 C258.66,395.74 259.38,388.29 259.82,384.63 C259.94,383.03 259.80,368.16 260.26,365.79 C261.17,361.85 264.16,353.53 265.81,349.83 C266.41,347.00 268.58,339.71 269.57,334.53 C270.09,331.80 270.53,328.96 270.46,328.32 C269.49,329.76 266.32,342.83 265.81,344.95 C265.31,346.96 262.37,353.03 262.04,354.70 C261.43,357.84 258.95,365.86 258.49,369.34 C257.82,372.70 255.75,385.95 256.72,394.83 C257.38,400.70 258.70,412.26 260.71,418.77 C261.70,422.00 261.41,427.03 262.48,430.30 C263.79,434.28 266.76,446.17 266.91,446.26 C266.38,448.82 270.48,460.20 270.46,462.00 C270.48,462.43 272.49,465.83 272.90,467.10 C272.98,467.34 274.76,474.49 275.12,474.86 C275.67,475.37 278.26,482.27 279.77,484.84 C284.45,492.72 291.51,501.94 293.52,506.12 C294.16,507.39 295.96,509.44 296.84,510.55 C297.29,511.00 303.23,515.77 303.94,516.32 C304.92,517.08 306.56,519.51 310.37,522.97 C316.48,528.13 327.01,535.06 327.21,535.16 C332.17,537.66 347.07,545.10 349.89,545.62 C355.29,546.82 369.41,550.46 371.55,550.90 C374.03,551.40 386.07,553.56 387.07,553.78 C390.13,554.19 400.44,555.36 403.92,554.67 C416.54,552.07 435.60,540.45 437.84,538.93" fill="none" stroke="rgb(163, 128, 93)" stroke-width="100.00" stroke-opacity="1.00" stroke-linejoin="round"/>
<path d="M454.91,107.30 C456.77,114.54 459.46,125.21 462.00,133.01 C463.36,137.11 466.00,141.84 466.81,143.94 C468.16,147.39 471.08,154.70 471.09,154.74 C471.98,157.62 475.62,171.90 477.24,177.49 C478.88,183.09 488.49,208.28 491.71,217.48 C492.18,218.59 495.54,230.47 497.92,236.10 C499.58,240.87 501.57,246.43 505.36,256.59 C506.03,258.40 510.11,277.21 510.83,281.51 C511.52,285.72 514.25,308.01 514.54,309.48 C515.63,316.22 521.00,346.79 521.67,357.86 C521.84,360.72 520.29,426.63 520.04,439.92 C520.16,449.83 519.60,456.97 518.53,465.11 C518.30,467.35 518.33,474.07 517.87,476.63" fill="none" stroke="rgb(163, 128, 93)" stroke-width="100.00" stroke-opacity="1.00" stroke-linejoin="round"/>
<path d="M300.61,399.04 C300.62,402.11 300.66,409.32 300.70,413.45 C300.76,417.81 301.26,419.24 303.78,423.09 C307.24,428.23 316.75,438.20 320.17,441.18 C331.91,451.33 346.67,463.98 366.14,479.01 C374.32,485.33 410.56,513.82 410.57,513.66 C410.30,511.63 402.97,502.70 398.49,496.25 C396.23,493.04 372.81,463.32 364.22,451.24 C356.94,441.03 354.85,437.83 348.97,427.23 C342.47,415.53 338.31,406.98 335.48,401.21 C331.74,393.54 327.29,382.55 324.49,375.80 C319.54,363.06 318.16,352.59 318.35,350.27 C318.41,349.55 318.95,349.00 319.68,348.50 C322.04,349.32 324.81,351.21 327.41,353.65 C330.28,356.35 343.49,370.17 348.50,375.43 C364.08,390.70 382.81,408.05 391.05,415.00 C402.13,424.55 446.05,460.25 448.22,461.77 C448.46,461.94 454.46,466.15 455.79,468.21 C455.89,468.37 455.97,468.52 456.02,468.65 C456.26,468.77 428.06,438.29 417.83,427.44 C403.28,411.45 384.80,388.97 380.29,382.64 C375.18,375.51 369.34,367.86 365.33,361.73 C350.95,339.68 341.39,322.48 337.19,313.91 C335.49,310.44 332.86,305.87 332.76,305.27 C334.74,307.45 345.33,320.23 350.06,325.61 C357.13,333.50 386.04,362.54 391.42,367.42 C396.87,372.33 409.47,383.42 414.83,387.56 C448.49,412.58 467.67,424.86 467.99,425.20 C469.21,424.52 444.39,396.41 433.38,384.16 C421.33,370.68 404.61,350.39 395.12,338.75 C383.56,324.05 371.53,307.11 359.83,289.46 C346.07,268.61 331.80,247.72 331.65,247.63 C332.92,249.12 361.22,278.79 372.20,288.70 C389.77,304.26 401.48,313.56 417.89,324.81 C430.01,332.73 451.69,346.83 463.55,353.82 C462.60,351.89 436.75,326.67 421.86,310.77 C414.64,303.04 390.06,274.76 383.78,266.43 C371.66,250.14 352.49,222.64 351.10,220.53 C344.81,210.90 329.48,182.22 329.21,180.23 C329.87,179.82 332.67,182.01 336.66,186.30 C347.23,198.12 362.67,215.01 378.43,230.82 C382.92,235.32 418.12,265.01 421.25,267.75 C436.56,281.47 447.23,292.22 446.93,291.08 C438.76,281.79 420.40,260.42 411.10,248.25 C402.21,236.22 379.19,203.25 377.32,200.19 C374.92,196.25 356.60,162.44 353.43,154.96 C352.51,152.78 349.94,146.17 350.05,145.43 C352.53,147.19 379.90,175.53 389.81,184.66 C396.68,190.83 402.14,195.36 410.37,201.77 C419.82,209.02 424.08,211.59 424.54,211.27 C423.79,210.60 394.24,173.36 390.51,168.21 C381.03,155.05 372.26,137.63 369.11,131.24 C367.02,126.85 366.79,125.50 366.68,123.04 C369.93,124.84 395.75,150.62 406.56,161.04 C412.09,166.27 419.38,173.14 421.21,174.47 C421.10,172.90 400.91,139.28 395.11,128.61 C390.69,120.15 389.53,116.94 389.51,116.61 C390.23,116.37 390.50,116.41 391.06,117.05 C399.64,127.43 416.98,148.13 417.44,148.53 C417.06,148.19 408.93,139.37 400.82,130.13 C392.89,121.44 389.97,118.51 383.30,112.84 C382.37,112.07 377.02,109.92 376.65,109.96 C374.47,110.19 373.87,109.99 371.77,109.96 C368.47,109.90 354.05,105.61 353.60,105.52 C352.38,105.31 341.78,103.71 341.40,103.75 C340.72,103.82 336.95,104.65 335.86,104.64 C337.03,103.73 338.60,103.22 340.29,103.31 C340.82,103.33 356.73,103.79 361.82,104.39 C369.24,105.28 395.64,112.78 397.05,113.28 C412.41,118.82 413.16,119.39 413.45,119.49 C409.43,115.67 401.01,109.97 396.38,107.96 C392.11,106.14 376.49,104.86 370.69,105.37 C366.90,105.72 337.31,104.64 336.53,104.64 C331.87,104.86 324.05,105.10 321.89,104.42 C322.64,102.07 324.27,100.91 326.33,99.32 C328.65,97.00 330.96,95.75 333.42,95.10 C334.01,94.96 342.13,91.61 344.28,91.34 C346.39,91.11 354.78,89.85 364.24,89.12 C364.70,89.12 366.30,89.74 367.34,89.56 C374.25,87.83 387.20,92.56 388.18,92.89 C389.80,93.44 394.57,94.13 396.38,95.10 C396.73,95.30 398.83,96.62 400.82,98.21 C401.07,98.41 411.72,103.12 426.31,116.39 C427.33,117.31 431.19,120.05 432.96,121.71 C433.34,122.01 437.48,126.26 438.72,126.81 C438.96,126.91 442.23,131.00 449.06,137.57 C452.19,140.59 458.47,149.95 459.88,151.69 C462.47,154.90 468.73,165.79 473.92,175.78 C484.62,196.93 488.23,206.69 490.82,214.60" fill="none" stroke="rgb(163, 128, 93)" stroke-width="100.00" stroke-opacity="1.00" stroke-linejoin="round"/>
<path d="M306.38,73.16 C308.45,71.32 312.43,68.15 313.91,67.17 C313.94,67.15 326.36,62.63 326.55,62.52 C327.09,62.19 333.07,59.99 334.53,59.86 C339.83,59.86 345.32,58.48 345.61,58.53 C345.95,58.57 351.04,57.71 351.38,57.64 C351.92,57.53 357.96,58.07 359.58,58.11 C361.26,58.15 362.33,58.01 363.79,57.64 C364.74,58.19 374.34,57.98 380.64,59.41 C382.59,59.86 392.24,60.39 394.83,61.19 C400.43,62.95 404.15,65.35 411.23,66.06 C415.49,66.47 417.92,67.62 418.55,68.50 C420.19,68.70 422.95,71.71 424.76,72.49 C425.25,72.71 431.32,75.01 431.63,75.15 C434.78,77.04 445.77,84.33 448.04,86.38 C450.84,88.94 453.64,93.06 454.46,94.00" fill="none" stroke="rgb(163, 128, 93)" stroke-width="40.00" stroke-opacity="1.00" stroke-linejoin="round"/>
<path d="M482.84,96.21 C487.52,101.25 488.78,102.76 489.71,104.64 C491.77,108.89 496.79,122.17 497.69,123.92 C499.37,127.09 503.04,133.93 505.19,136.82 C507.48,139.93 508.95,145.61 509.89,148.53 C510.77,151.75 513.89,164.80 516.09,170.04 C517.42,173.58 522.40,187.71 523.63,190.43 C525.96,195.63 526.91,205.30 527.84,209.94 C529.30,217.12 530.08,226.79 531.70,234.57 C532.25,237.22 534.94,249.62 536.49,255.83" fill="none" stroke="rgb(163, 128, 93)" stroke-width="40.00" stroke-opacity="1.00" stroke-linejoin="round"/>
<path d="M525.41,194.64 C526.13,198.06 538.29,243.33 540.48,253.17 C541.70,259.04 543.76,269.32 544.03,272.01 C544.14,273.09 545.84,284.97 546.02,285.98 C547.02,291.69 546.58,304.04 547.35,309.70 C547.69,312.24 546.38,354.10 545.80,357.59 C545.58,361.24 544.40,382.07 543.14,397.27 C541.84,409.01 541.78,423.05 542.70,436.73" fill="none" stroke="rgb(163, 128, 93)" stroke-width="40.00" stroke-opacity="1.00" stroke-linejoin="round"/>
<path d="M269.57,144.54 C263.60,151.85 261.45,153.46 259.60,156.29 C251.94,168.15 252.37,177.24 251.84,178.02 C251.99,177.42 253.33,166.29 253.39,166.05 C254.39,161.50 256.57,151.91 258.05,148.75 C259.31,146.10 263.15,140.77 265.36,137.89 C269.64,130.76 270.93,127.79 271.35,126.81" fill="none" stroke="rgb(163, 128, 93)" stroke-width="40.00" stroke-opacity="1.00" stroke-linejoin="round"/>
<path d="M219.03,357.36 C219.47,360.91 220.42,368.32 220.39,370.21 C220.33,373.39 221.25,376.43 221.69,377.98 C222.54,380.76 224.77,389.50 225.46,390.84 C225.66,391.23 225.99,394.43 226.79,396.16 C229.23,401.23 230.87,417.06 231.00,421.88 C231.00,421.88 234.06,440.37 235.88,445.82 C236.17,446.91 237.85,452.56 238.09,453.36 C238.10,453.38 242.39,461.39 246.30,469.98 C246.54,470.56 247.33,473.20 247.63,473.75 C252.54,482.98 255.72,488.94 258.71,494.59 C261.19,498.62 270.08,511.12 274.45,517.20 C275.11,520.53 267.70,516.08 267.36,515.87 C267.02,515.67 264.13,512.46 263.59,512.10 C260.01,509.71 252.02,499.62 251.62,499.25 C248.97,496.60 237.54,477.28 237.43,477.08 C235.15,472.51 230.32,457.09 229.45,454.24 C227.87,449.09 225.67,440.49 224.56,431.29 C224.45,426.92 223.53,409.29 222.58,400.82 C221.98,397.82 222.72,385.50 223.02,382.19 C224.39,367.75 229.04,356.22 230.56,352.04" fill="none" stroke="rgb(163, 128, 93)" stroke-width="40.00" stroke-opacity="1.00" stroke-linejoin="round"/>
<path d="M326.33,69.17" fill="none" stroke="rgb(163, 128, 93)" stroke-width="40.00" stroke-opacity="1.00" stroke-linejoin="round"/>
<path d="M546.24,301.05" fill="none" stroke="rgb(163, 128, 93)" stroke-width="25.00" stroke-opacity="1.00" stroke-linejoin="round"/>
<path d="M546.24,301.05 C546.10,304.39 548.12,311.77 548.90,316.13 C548.90,316.91 551.91,328.50 552.01,328.77 C552.76,330.87 552.97,333.82 553.78,334.53 C553.79,335.22 555.18,339.55 555.55,341.62 C556.07,344.46 556.00,353.22 556.44,357.14 C556.64,358.88 555.73,366.79 556.44,371.11 C558.31,381.96 559.66,396.05 559.77,397.49 C560.00,398.62 560.02,423.64 559.99,423.87 C559.96,424.10 558.77,431.86 558.88,432.30 C558.95,432.57 558.27,443.05 558.22,443.38 C558.16,443.77 557.71,444.84 557.77,446.26 C557.77,446.26 555.11,452.47 555.11,452.47" fill="none" stroke="rgb(163, 128, 93)" stroke-width="25.00" stroke-opacity="1.00" stroke-linejoin="round"/>
</g>
<g stroke-linecap="round" id="Body_Outline">
<path d="M273.12,90.01 C269.46,93.99 261.28,103.01 260.93,103.53 C260.41,104.30 255.82,112.94 255.61,113.28 C250.29,121.26 248.27,125.27 248.07,125.70 C247.81,126.27 238.76,143.32 238.32,144.32 C232.87,157.65 229.06,171.45 226.35,182.89 C225.38,187.72 224.57,194.20 223.91,198.41 C223.46,205.49 223.18,215.75 223.26,216.46 C223.45,218.21 223.61,222.17 224.57,226.35 C225.11,229.87 226.58,233.86 228.62,237.67 C230.68,241.48 235.49,250.21 237.65,252.50 C240.55,255.56 243.90,259.89 251.84,267.80 C253.63,269.63 254.16,270.06 254.50,270.02" fill="none" stroke="rgb(0, 0, 0)" stroke-width="10.00" stroke-opacity="1.00" stroke-linejoin="round"/>
<path d="M318.35,53.21 C323.82,51.07 334.21,48.50 335.89,48.12 C341.78,46.81 350.62,47.13 356.70,46.11 C367.89,45.13 390.13,48.47 401.04,50.10 C402.44,50.36 408.34,51.54 408.80,51.65 C412.11,52.50 419.22,56.75 421.88,58.30 C427.09,60.59 430.90,62.53 431.19,62.52 C431.19,62.52 431.85,63.40 431.85,63.40" fill="none" stroke="rgb(0, 0, 0)" stroke-width="10.00" stroke-opacity="1.00" stroke-linejoin="round"/>
<path d="M496.59,90.01 C497.90,92.48 500.96,98.24 501.46,98.87 C501.72,99.19 506.19,104.29 507.38,105.94 C508.87,107.87 511.94,113.12 513.43,115.72 C514.76,118.11 519.36,129.41 520.97,132.35 C521.14,132.65 525.19,140.46 526.74,143.43 C529.89,149.61 531.61,153.66 532.72,157.84 C533.62,161.29 537.09,172.42 537.38,173.14 C539.19,177.71 546.03,192.55 547.57,196.86 C552.69,211.38 556.33,232.22 558.66,243.86 C560.51,255.66 566.82,277.57 568.41,292.58 C568.77,296.94 572.17,334.17 572.80,341.95 C573.27,349.55 574.62,368.17 575.54,393.50 C575.53,394.31 574.84,412.29 574.62,417.89 C574.75,423.86 570.24,449.48 570.19,449.81 C570.15,450.07 570.20,453.20 570.19,454.46" fill="none" stroke="rgb(0, 0, 0)" stroke-width="10.00" stroke-opacity="1.00" stroke-linejoin="round"/>
<path d="M238.98,270.46 C236.34,274.77 233.82,281.04 229.23,289.31 C228.30,290.90 221.93,303.40 220.21,310.17 C217.90,319.30 214.96,333.12 214.82,333.64 C212.32,342.57 210.29,347.74 208.11,357.00 C204.89,371.00 204.19,374.77 202.40,393.50 C201.34,404.86 202.50,428.61 203.31,434.18 C204.70,443.66 207.64,455.36 208.51,457.80 C215.24,476.74 216.64,482.30 219.92,489.93 C221.33,493.16 236.05,514.04 240.14,518.70 C241.47,520.20 254.73,533.08 255.73,534.17 C258.62,537.25 263.77,540.30 265.41,541.42 C267.54,542.87 271.95,546.68 274.82,548.59 C277.40,550.31 293.89,559.72 295.22,560.25 C299.56,561.99 308.17,566.28 315.91,568.86 C329.79,573.59 350.79,578.99 362.46,581.49 C372.60,583.56 395.13,583.42 405.47,582.60 C434.62,581.14 466.88,573.79 470.80,572.58 C482.54,568.93 493.99,564.26 496.81,562.87 C507.82,557.38 524.67,546.30 530.28,541.37 C538.09,533.56 544.00,528.85 546.47,526.29 C546.47,526.29 546.69,526.29 546.69,526.29" fill="none" stroke="rgb(0, 0, 0)" stroke-width="10.00" stroke-opacity="1.00" stroke-linejoin="round"/>
<path d="M196.42,628.27" fill="none" stroke="rgb(179, 227, 210)" stroke-width="17.00" stroke-opacity="1.00" stroke-linejoin="round"/>
</g>
<g stroke-linecap="round" id="Snout_Fill">
<path d="M317.02,163.61 C314.56,168.52 314.09,171.36 313.76,172.74 C312.36,178.59 311.46,185.06 310.77,189.23 C310.58,191.35 309.85,198.93 309.92,199.30 C311.11,204.94 312.38,206.18 313.25,207.06 C315.03,207.17 315.85,206.96 316.57,205.95 C317.57,204.51 320.75,199.98 321.67,197.97 C322.23,196.42 323.96,192.86 324.33,191.76 C324.59,190.99 325.95,175.18 325.44,171.59 C324.95,168.18 321.18,163.57 320.56,162.94 C320.56,162.93 318.83,161.71 318.12,161.39 C316.89,161.67 315.54,162.65 314.80,164.27 C313.69,166.76 312.92,169.81 312.36,172.03 C311.77,174.13 310.25,176.20 308.81,179.35 C307.16,183.01 306.34,187.99 306.14,189.51 C305.43,195.41 306.19,206.45 306.82,208.83 C307.12,209.93 308.21,211.72 309.04,212.82" fill="none" stroke="rgb(135, 93, 67)" stroke-width="50.00" stroke-opacity="1.00" stroke-linejoin="round"/>
</g>
<g stroke-linecap="round" id="Hands_Fill">
<path d="M248.74,338.74 C248.74,338.74 252.28,347.17 252.28,347.17" fill="none" stroke="rgb(135, 93, 67)" stroke-width="25.00" stroke-opacity="1.00" stroke-linejoin="round"/>
<path d="M446.48,344.51 C446.00,346.21 445.21,349.45 445.15,349.60 C444.90,350.29 444.22,351.98 444.71,352.71 C444.73,350.33 445.54,344.04 446.04,342.07 C446.08,341.90 446.08,341.68 446.04,341.40" fill="none" stroke="rgb(135, 93, 67)" stroke-width="25.00" stroke-opacity="1.00" stroke-linejoin="round"/>
</g>
<g stroke-linecap="round" id="Hands_Outline">
<path d="M243.42,326.77 C244.58,327.54 247.78,329.31 249.40,331.43 C249.84,332.03 251.21,333.58 252.06,334.75 C253.11,336.20 254.37,338.89 256.50,343.84 C257.15,345.34 257.16,348.79 256.50,349.60 C256.47,349.64 254.82,351.66 251.62,353.60 C251.45,353.70 251.15,353.92 250.73,354.26 C250.73,354.26 243.19,356.03 243.19,356.03 C243.19,356.03 243.42,356.03 243.42,356.03" fill="none" stroke="rgb(0, 0, 0)" stroke-width="10.00" stroke-opacity="1.00" stroke-linejoin="round"/>
<path d="M455.35,327.66 C452.36,328.43 448.30,329.49 446.21,330.71 C442.32,333.01 440.57,334.48 440.05,334.75 C439.60,335.00 438.19,337.55 437.62,338.08 C436.77,339.79 435.75,344.20 435.40,347.17 C434.77,352.49 436.45,356.19 436.51,356.26 C437.82,357.80 441.47,360.76 444.71,362.46 C453.60,367.11 456.60,368.76 456.68,368.89" fill="none" stroke="rgb(0, 0, 0)" stroke-width="10.00" stroke-opacity="1.00" stroke-linejoin="round"/>
</g>
<g stroke-linecap="round" id="Tail_Fill">
<path d="M559.99,490.38 C559.99,490.38 564.20,498.80 564.20,498.80 C564.20,498.80 567.97,499.91 567.97,499.91 C567.97,499.91 571.96,497.69 571.96,497.69 C571.92,497.29 572.57,495.42 571.96,494.15 C571.65,493.53 564.64,487.05 563.09,485.72 C563.84,485.93 571.07,490.55 573.07,491.93 C576.12,494.09 576.46,502.29 576.39,502.57 C576.03,503.58 575.26,505.59 573.51,506.34 C572.57,506.74 568.97,507.23 567.30,507.23 C566.42,507.23 565.16,506.72 563.76,506.78 C563.76,506.78 558.44,502.57 558.44,502.57 C559.85,501.61 561.98,502.38 563.31,502.35 C563.68,502.34 564.27,502.34 565.09,502.35 C565.09,502.35 566.42,501.91 566.42,501.91 C566.42,501.91 567.30,501.24 567.30,501.24 C567.62,500.67 568.39,498.55 568.41,496.36 C568.44,492.27 567.91,490.89 567.97,490.60 C567.97,490.60 563.54,482.62 563.54,482.62 C563.59,481.54 562.61,477.90 561.98,476.41 C561.92,476.26 561.74,475.76 561.76,474.64 C561.76,474.64 559.10,466.21 559.10,466.21 C559.10,466.21 558.22,461.56 558.22,461.56" fill="none" stroke="rgb(163, 128, 93)" stroke-width="25.00" stroke-opacity="1.00" stroke-linejoin="round"/>
</g>
<g stroke-linecap="round" id="Tail_Outline">
<path d="M573.73,477.08 C576.50,478.30 584.02,481.34 585.48,483.06 C587.37,485.42 588.99,489.10 589.70,490.60 C591.47,494.37 592.98,502.08 590.14,509.22 C590.00,509.57 589.63,510.60 589.03,512.33 C588.27,512.69 587.59,514.23 586.37,514.99 C585.69,515.40 581.98,516.96 581.71,516.98 C581.49,517.00 576.92,517.74 574.84,517.42 C574.38,517.35 557.36,511.60 557.11,511.66 C557.11,511.66 556.88,510.77 556.88,510.77" fill="none" stroke="rgb(0, 0, 0)" stroke-width="10.00" stroke-opacity="1.00" stroke-linejoin="round"/>
</g>
<g stroke-linecap="round" id="Ears_Fill">
<path d="M292.19,82.47 C288.30,76.57 285.40,73.46 283.76,69.39 C283.64,69.08 283.27,68.22 283.32,67.17 C283.32,67.17 284.21,64.96 284.21,64.96 C284.21,64.96 285.09,63.62 285.09,63.62 C285.09,63.62 285.76,62.52 285.76,62.52 C286.96,62.43 288.35,64.11 288.86,64.51 C290.08,65.62 292.01,67.30 294.63,72.05 C295.76,73.75 302.25,85.49 302.39,86.02" fill="none" stroke="rgb(163, 128, 93)" stroke-width="40.00" stroke-opacity="1.00" stroke-linejoin="round"/>
<path d="M455.79,76.70 C458.23,74.04 461.36,70.77 464.44,68.95 C467.36,67.25 470.32,66.34 471.09,66.06 C471.09,66.06 471.98,65.18 471.98,65.18 C471.98,65.18 473.31,64.73 473.31,64.73 C473.31,64.73 474.64,65.84 474.64,65.84 C475.22,67.12 475.81,70.85 475.52,72.05 C473.56,78.94 468.80,91.81 467.77,96.21" fill="none" stroke="rgb(163, 128, 93)" stroke-width="40.00" stroke-opacity="1.00" stroke-linejoin="round"/>
<path d="M275.34,53.21 C275.34,53.21 277.11,61.41 277.11,61.41 C277.11,61.41 277.56,62.96 277.56,62.96" fill="none" stroke="rgb(163, 128, 93)" stroke-width="40.00" stroke-opacity="1.00" stroke-linejoin="round"/>
</g>
<g stroke-linecap="round" id="Ears_Outline">
<path d="M268.69,77.59 C267.34,75.93 265.19,73.40 264.48,72.49 C264.46,72.48 262.97,67.39 262.92,67.17 C262.42,64.49 262.47,56.38 262.48,56.31 C262.57,55.71 263.75,50.73 263.81,50.10 C263.87,49.51 266.60,44.67 266.91,44.12 C267.71,42.75 269.88,41.24 270.02,41.23 C270.92,41.19 272.66,39.53 272.90,39.46 C272.90,39.46 274.23,39.90 274.23,39.90 C274.23,39.90 275.56,39.46 275.56,39.46 C275.56,39.46 277.11,39.46 277.11,39.46 C277.11,39.46 278.22,39.68 278.22,39.68 C278.96,40.75 285.43,44.01 289.08,46.33 C292.62,48.97 295.84,55.46 295.73,55.64 C295.73,55.64 296.18,55.87 296.18,55.87" fill="none" stroke="rgb(0, 0, 0)" stroke-width="10.00" stroke-opacity="1.00" stroke-linejoin="round"/>
<path d="M450.92,65.18 C454.64,60.17 457.62,57.22 461.56,53.87 C461.69,53.76 465.19,50.63 465.33,50.55 C468.79,48.35 469.52,48.31 470.65,47.89 C474.45,46.56 481.15,49.15 481.29,49.22 C482.77,49.91 483.33,50.85 483.51,51.21 C483.51,51.21 485.72,52.98 485.72,52.98 C486.05,53.70 488.62,58.26 489.27,59.63 C489.88,60.95 489.97,62.77 490.16,63.40 C490.56,64.83 489.96,68.20 489.93,68.72 C489.83,70.73 487.54,75.90 487.72,76.93 C487.72,76.93 486.83,78.70 486.83,78.70 C486.83,78.70 486.39,79.81 486.39,79.81" fill="none" stroke="rgb(0, 0, 0)" stroke-width="10.00" stroke-opacity="1.00" stroke-linejoin="round"/>
</g>
<g stroke-linecap="round" id="Eye_Fill">
<path d="M425.64,160.50 C423.43,165.53 423.39,166.15 424.09,167.15 C424.09,167.15 425.42,166.71 425.42,166.71 C425.42,166.71 427.86,164.72 427.86,164.72 C427.86,164.72 426.31,162.28 426.31,162.28 C425.30,162.47 424.98,162.57 424.76,162.94 C424.16,163.99 423.17,166.57 422.98,167.82 C422.85,168.69 423.33,169.60 423.87,170.26 C424.51,170.47 426.25,170.07 426.75,169.81 C427.71,169.46 430.58,166.74 430.97,166.49 C431.69,166.01 432.52,163.55 431.63,162.72 C429.45,160.82 426.20,161.69 425.42,162.50 C424.36,163.66 423.94,165.34 423.87,168.48 C423.86,169.87 424.87,171.13 425.87,170.92 C426.52,170.75 428.16,169.72 429.41,168.71 C430.96,167.44 431.55,165.87 431.85,165.60 C431.87,163.51 430.19,162.65 429.86,162.28 C429.86,162.28 428.08,162.72 428.08,162.72 C426.98,163.49 425.58,165.96 425.20,167.15 C424.72,168.74 424.20,172.22 424.54,173.14 C425.07,174.49 425.65,175.18 426.53,175.36 C427.89,175.60 429.89,174.70 431.63,173.36 C432.03,173.05 432.23,172.34 432.30,171.81 C432.39,170.62 428.82,168.41 428.53,168.04 C428.53,168.04 427.64,168.71 427.64,168.71 C427.64,168.71 426.09,173.14 426.09,173.14 C426.09,173.14 427.20,174.47 427.20,174.47 C427.20,174.47 430.08,174.25 430.08,174.25" fill="none" stroke="rgb(0, 0, 0)" stroke-width="10.00" stroke-opacity="1.00" stroke-linejoin="round"/>
<path d="M265.14,160.50 C265.14,160.50 258.27,154.30 258.27,154.30 C257.08,154.21 255.87,155.80 255.83,155.85 C255.05,156.63 254.85,157.67 254.50,158.95 C254.24,159.94 255.05,161.34 255.17,161.61 C255.17,161.61 257.38,161.39 257.38,161.39 C257.38,161.39 259.82,157.62 259.82,157.62 C260.13,157.34 260.48,156.31 259.60,154.96 C259.45,154.76 258.67,154.76 258.27,154.74 C256.87,154.75 255.96,155.27 254.94,156.73 C253.55,158.80 251.19,167.01 252.95,166.71 C252.95,166.71 254.72,166.71 254.72,166.71 C254.87,166.57 257.92,163.89 258.71,162.94 C259.49,161.96 260.43,159.43 260.04,158.51 C259.39,157.09 257.82,156.33 257.38,156.51 C255.39,157.41 254.23,163.21 254.28,164.05 C254.65,164.91 256.56,164.48 258.27,163.39 C259.99,162.52 261.70,160.28 262.48,159.40 C262.42,159.11 263.21,156.79 262.92,155.85 C262.83,155.53 262.42,154.79 262.48,154.52 C262.48,154.52 260.04,152.08 260.04,152.08 C259.39,152.10 256.47,152.45 255.17,154.07 C253.14,156.65 252.06,163.94 252.50,165.16 C252.71,165.66 253.53,167.50 254.28,168.04 C254.47,167.89 260.50,164.80 261.59,163.61 C262.13,163.02 263.53,162.31 264.03,161.61 C264.37,161.17 264.78,160.61 265.14,160.28 C265.14,160.28 265.14,158.95 265.14,158.95 C264.73,158.58 263.71,157.06 263.59,156.96 C262.69,156.22 259.85,155.78 258.71,156.07 C257.21,156.52 254.18,159.38 252.73,162.94 C252.15,164.41 251.79,167.27 251.40,168.48 C251.40,168.48 253.39,170.70 253.39,170.70 C253.61,170.55 256.81,169.19 257.60,168.48 C260.11,166.18 262.92,160.34 262.92,160.06 C262.95,156.58 262.01,154.38 262.04,154.07 C262.04,154.07 260.04,152.08 260.04,152.08 C260.04,152.08 258.05,153.41 258.05,153.41" fill="none" stroke="rgb(0, 0, 0)" stroke-width="10.00" stroke-opacity="1.00" stroke-linejoin="round"/>
</g>
<g stroke-linecap="round" id="Eye_Outline">
<path d="M425.20,158.29 C421.57,162.97 420.70,164.39 420.55,165.38 C420.15,168.44 421.33,175.53 422.32,176.69 C422.45,176.84 424.60,178.35 425.20,178.90 C426.59,180.04 431.41,179.97 432.96,179.35 C436.15,177.98 438.49,173.89 438.50,173.80 C438.50,172.94 439.10,170.95 438.95,169.81 C438.47,166.48 436.95,160.95 435.18,159.17 C434.74,158.74 434.43,158.32 434.07,157.62 C433.08,155.82 426.86,158.08 422.98,158.73" fill="none" stroke="rgb(0, 0, 0)" stroke-width="10.00" stroke-opacity="1.00" stroke-linejoin="round"/>
<path d="M257.60,154.30 C254.32,158.41 253.15,161.45 252.95,161.83 C252.71,162.34 252.72,167.70 252.73,169.15 C252.73,169.15 255.17,171.59 255.17,171.59 C255.17,171.59 256.50,172.03 256.50,172.03 C259.77,170.40 260.82,169.21 262.26,168.48 C262.42,168.36 264.10,166.92 264.25,166.05 C264.25,166.05 267.36,162.50 267.36,162.50 C267.36,162.50 267.80,161.17 267.80,161.17 C267.80,161.17 268.24,154.07 268.24,154.07 C267.30,151.98 263.96,149.88 263.59,149.86 C260.93,149.86 260.02,150.13 259.16,150.75 C257.06,152.27 256.64,152.85 256.27,153.41" fill="none" stroke="rgb(0, 0, 0)" stroke-width="10.00" stroke-opacity="1.00" stroke-linejoin="round"/>
</g>
<g stroke-linecap="round" id="Mouth_Outline">
<path d="M299.72,172.03 C299.72,172.03 305.71,179.79 305.71,179.79 C307.80,180.76 310.27,181.74 315.24,181.79 C319.84,181.82 329.01,177.23 329.87,177.35" fill="none" stroke="rgb(0, 0, 0)" stroke-width="10.00" stroke-opacity="1.00" stroke-linejoin="round"/>
<path d="M310.37,181.79 C307.99,191.84 307.71,201.52 307.71,201.96 C307.71,201.96 308.15,202.18 308.15,202.18" fill="none" stroke="rgb(0, 0, 0)" stroke-width="10.00" stroke-opacity="1.00" stroke-linejoin="round"/>
</g>
</svg>
