<?xml version="1.0" encoding="UTF-8" standalone="no"?>
<!DOCTYPE svg PUBLIC "-//W3C//DTD SVG 1.1//EN" "http://www.w3.org/Graphics/SVG/1.1/DTD/svg11.dtd">
<svg width="800.00" height="600.00" viewBox="0.00 0.00 800.00 600.00" xmlns="http://www.w3.org/2000/svg" xmlns:xlink="http://www.w3.org/1999/xlink">
<g stroke-linecap="round" id="Teardrop">
<path d="M427.86,190.21 C426.75,193.87 424.32,202.37 424.31,202.40 C423.87,204.90 423.88,208.61 424.31,209.94 C424.71,211.12 425.34,215.82 426.09,216.15 C426.22,216.20 427.55,217.63 428.08,217.70 C428.47,217.75 430.05,217.76 430.74,218.14 C430.74,218.14 432.74,216.15 432.74,216.15 C433.10,215.68 432.80,205.99 432.74,204.62 C432.71,204.01 429.18,192.12 428.97,191.76 C428.97,191.76 432.30,209.05 432.30,209.05 C432.30,209.05 432.74,211.27 432.74,211.27 C432.74,211.27 430.74,213.71 430.74,213.71 C430.46,213.64 428.04,214.49 427.20,213.71 C426.67,213.19 425.66,210.79 425.64,210.38 C425.39,203.25 427.00,192.65 427.20,192.43" fill="none" stroke="rgb(255, 255, 255)" stroke-width="12.00" stroke-opacity="1.00" stroke-linejoin="round"/>
</g>
</svg>
