<?xml version="1.0" encoding="UTF-8" standalone="no"?>
<!DOCTYPE svg PUBLIC "-//W3C//DTD SVG 1.1//EN" "http://www.w3.org/Graphics/SVG/1.1/DTD/svg11.dtd">
<svg width="800.00" height="600.00" viewBox="0.00 0.00 800.00 600.00" xmlns="http://www.w3.org/2000/svg" xmlns:xlink="http://www.w3.org/1999/xlink">
<g stroke-linecap="round" transform="translate(21.00, 10.00)" id="Teardrop_Expression">
<path d="M448.17,93.36 C448.05,94.58 446.98,97.52 446.98,101.08 C447.02,101.82 445.00,110.57 444.90,110.87 C443.83,114.19 443.43,124.01 443.44,132.24 C443.43,141.47 444.10,143.12 444.01,143.52 C444.01,143.52 446.68,145.00 446.68,145.00 C447.91,146.80 450.78,149.41 450.84,149.45 C451.89,150.28 455.31,151.02 456.18,150.94 C456.49,151.61 462.01,151.45 463.90,151.53 C466.05,151.62 468.25,150.22 468.35,150.05 C468.77,147.13 469.06,145.99 468.94,145.89 C465.67,143.22 461.52,139.25 461.56,138.94 C461.64,138.67 465.60,140.74 466.88,141.39 C468.92,142.41 470.45,142.20 470.33,140.95 C470.29,140.60 470.03,139.87 469.54,138.77 C469.05,138.32 467.58,136.25 467.76,134.32 C467.82,133.54 466.47,129.04 466.53,126.40 C466.54,125.77 466.55,125.15 466.57,124.52 C466.10,124.09 464.32,117.52 464.19,116.81 C463.21,111.30 462.56,110.75 461.82,110.28 C461.82,110.28 461.23,108.50 461.23,108.50 C461.23,108.50 457.67,101.37 457.67,101.37 C457.67,101.37 455.29,98.41 455.29,98.41 C455.29,98.41 453.51,93.66 453.51,93.66 C453.93,95.53 455.63,99.93 455.88,100.78 C455.98,101.10 456.25,113.66 456.18,113.54 C455.57,112.53 453.00,110.29 452.64,110.75 C452.25,111.28 457.12,137.11 457.07,139.36 C457.06,139.69 457.06,140.08 457.07,140.55 C457.07,140.55 458.26,143.52 458.26,143.52" fill="none" stroke="rgb(255, 255, 255)" stroke-width="12.00" stroke-opacity="1.00" stroke-linejoin="round"/>
</g>
</svg>
